<svg xmlns="http://www.w3.org/2000/svg" viewBox="0 0 560 700" role="img" aria-label="Dragonfly Marsh Crossing radically varied van t-shirt front">
<title>Dragonfly Marsh Crossing</title><metadata>scene=dragonfly marsh crossing; treatment=diecast toy style; composition=wide panorama; no logos no trademarks</metadata>
<rect width="560" height="700" fill="none"/>
<g class="dragonfly-marsh-crossing scene-marker"><circle cx="415" cy="140" r="44" fill="#e5a642"/><path d="M70 430l112-155 76 105 52-70 126 120z" fill="#916c4d" stroke="#26303d" stroke-width="6"/><path d="M84 474c120-32 280-32 392 0" stroke="#26303d" stroke-width="7" fill="none"/></g>
<g class="van-treatment-diecast-toy-style dragonfly-marsh-crossing-van" transform="translate(156 290) scale(0.67)"><path d="M42 96h188c45 0 77 26 94 66l10 35H30V122c0-16 4-26 12-26z" fill="#e5a642" stroke="#26303d" stroke-width="7"/><path d="M54 102h244" stroke="#fff" stroke-width="8" opacity="0.7"/><rect x="75" y="116" width="58" height="42" fill="#93b6d6" stroke="#26303d" stroke-width="5"/><rect x="150" y="116" width="64" height="42" fill="#93b6d6" stroke="#26303d" stroke-width="5"/><circle cx="92" cy="205" r="34" fill="#26303d"/><circle cx="262" cy="205" r="34" fill="#26303d"/></g>
</svg>