<svg xmlns="http://www.w3.org/2000/svg" viewBox="0 0 560 700" role="img" aria-label="Possum Pilot radically varied van t-shirt front">
<title>Possum Pilot</title><metadata>scene=possum driving; treatment=single-line contour; composition=possum driver with tail out window; no logos no trademarks</metadata>
<rect width="560" height="700" fill="none"/><text x="280" y="58" text-anchor="middle" font-family="Arial Black, Arial, sans-serif" font-size="29" fill="#11343a">POSSUM PILOT</text>
<g class="possum scene-marker"><circle cx="162" cy="250" r="56" fill="#47796e" stroke="#11343a" stroke-width="7"/><path d="M101 230c-36-35-48-14-26 10m146-10c36-35 48-14 26 10" stroke="#11343a" stroke-width="8" fill="none"/><circle cx="142" cy="245" r="8" fill="#11343a"/><circle cx="182" cy="245" r="8" fill="#11343a"/></g>
<g class="van-treatment-single-line-contour possum-van" transform="translate(144 310) scale(0.62)"><path d="M42 74h172c48 0 82 30 96 78l12 50H28V100c0-16 5-26 14-26z" fill="#e7dfce" stroke="#11343a" stroke-width="7"/><rect x="76" y="28" width="158" height="22" rx="6" fill="none" stroke="#11343a" stroke-width="5"/><rect x="62" y="98" width="52" height="42" rx="8" fill="#b6d8d9" stroke="#11343a" stroke-width="5"/><rect x="132" y="98" width="58" height="42" rx="8" fill="#b6d8d9" stroke="#11343a" stroke-width="5"/><rect x="205" y="98" width="58" height="42" rx="8" fill="#b6d8d9" stroke="#11343a" stroke-width="5"/><circle cx="88" cy="206" r="36" fill="#11343a"/><circle cx="260" cy="206" r="36" fill="#11343a"/><circle cx="88" cy="206" r="16" fill="#e7dfce" stroke="#f0b25a" stroke-width="7"/><circle cx="260" cy="206" r="16" fill="#e7dfce" stroke="#f0b25a" stroke-width="7"/></g>
<text x="280" y="612" text-anchor="middle" font-family="Arial, sans-serif" font-size="19" font-weight="900" letter-spacing="2" fill="#11343a">PLAY DEAD GO FAR</text></svg>